<svg width="40" height="40" viewBox="0 0 40 40" fill="none" xmlns="http://www.w3.org/2000/svg">
  <rect width="40" height="40" rx="20" fill="white"/>
  <path d="M20 8C14.477 8 10 12.477 10 18C10 23.523 14.477 28 20 28C25.523 28 30 23.523 30 18C30 12.477 25.523 8 20 8ZM20 26C15.582 26 12 22.418 12 18C12 13.582 15.582 10 20 10C24.418 10 28 13.582 28 18C28 22.418 24.418 26 20 26Z" fill="#9D174D"/>
  <path d="M20 12C18.895 12 18 12.895 18 14C18 15.105 18.895 16 20 16C21.105 16 22 15.105 22 14C22 12.895 21.105 12 20 12Z" fill="#9D174D"/>
  <path d="M16 18C14.895 18 14 18.895 14 20C14 21.105 14.895 22 16 22C17.105 22 18 21.105 18 20C18 18.895 17.105 18 16 18Z" fill="#9D174D"/>
  <path d="M24 18C22.895 18 22 18.895 22 20C22 21.105 22.895 22 24 22C25.105 22 26 21.105 26 20C26 18.895 25.105 18 24 18Z" fill="#9D174D"/>
  <path d="M17 30C17 31.657 18.343 33 20 33C21.657 33 23 31.657 23 30H17Z" fill="#9D174D"/>
  <path d="M17 30V28H23V30H17Z" fill="#9D174D"/>
</svg>

