<svg width="800" height="600" viewBox="0 0 800 600" fill="none" xmlns="http://www.w3.org/2000/svg">
  <!-- Easter Eggs -->
  <ellipse cx="100" cy="100" rx="30" ry="40" fill="#EC4899" />
  <ellipse cx="300" cy="150" rx="25" ry="35" fill="#8B5CF6" />
  <ellipse cx="500" cy="100" rx="30" ry="40" fill="#F59E0B" />
  <ellipse cx="700" cy="150" rx="25" ry="35" fill="#10B981" />
  <ellipse cx="200" cy="300" rx="30" ry="40" fill="#3B82F6" />
  <ellipse cx="400" cy="250" rx="25" ry="35" fill="#EC4899" />
  <ellipse cx="600" cy="300" rx="30" ry="40" fill="#8B5CF6" />
  <ellipse cx="100" cy="450" rx="25" ry="35" fill="#F59E0B" />
  <ellipse cx="300" cy="500" rx="30" ry="40" fill="#10B981" />
  <ellipse cx="500" cy="450" rx="25" ry="35" fill="#3B82F6" />
  <ellipse cx="700" cy="500" rx="30" ry="40" fill="#EC4899" />
  
  <!-- Bunny Silhouettes -->
  <path d="M150 200C150 200 140 180 150 170C160 160 170 170 170 170C170 170 180 160 190 170C200 180 190 200 190 200L180 220H160L150 200Z" fill="#8B5CF6" />
  <path d="M450 400C450 400 440 380 450 370C460 360 470 370 470 370C470 370 480 360 490 370C500 380 490 400 490 400L480 420H460L450 400Z" fill="#F59E0B" />
  <path d="M650 200C650 200 640 180 650 170C660 160 670 170 670 170C670 170 680 160 690 170C700 180 690 200 690 200L680 220H660L650 200Z" fill="#10B981" />
  
  <!-- Flowers -->
  <circle cx="250" cy="100" r="15" fill="#F472B6" />
  <circle cx="235" cy="85" r="15" fill="#F472B6" />
  <circle cx="265" cy="85" r="15" fill="#F472B6" />
  <circle cx="235" cy="115" r="15" fill="#F472B6" />
  <circle cx="265" cy="115" r="15" fill="#F472B6" />
  <circle cx="250" cy="100" r="10" fill="#FBBF24" />
  
  <circle cx="550" cy="350" r="15" fill="#A78BFA" />
  <circle cx="535" cy="335" r="15" fill="#A78BFA" />
  <circle cx="565" cy="335" r="15" fill="#A78BFA" />
  <circle cx="535" cy="365" r="15" fill="#A78BFA" />
  <circle cx="565" cy="365" r="15" fill="#A78BFA" />
  <circle cx="550" cy="350" r="10" fill="#FBBF24" />
  
  <circle cx="350" cy="550" r="15" fill="#34D399" />
  <circle cx="335" cy="535" r="15" fill="#34D399" />
  <circle cx="365" cy="535" r="15" fill="#34D399" />
  <circle cx="335" cy="565" r="15" fill="#34D399" />
  <circle cx="365" cy="565" r="15" fill="#34D399" />
  <circle cx="350" cy="550" r="10" fill="#FBBF24" />
</svg>

